<svg width="21" height="21" viewBox="0 0 21 21" fill="none" xmlns="http://www.w3.org/2000/svg">
<path d="M1.26222 12.1568C1.34814 12.1719 1.4351 12.1789 1.52211 12.1777L16.3372 12.1777L16.0141 12.3411C15.6984 12.5037 15.4111 12.7249 15.1652 12.9948L11.0107 17.5133C10.4635 18.0814 10.3716 18.9952 10.7928 19.6786C11.2831 20.4067 12.2232 20.5648 12.8928 20.0316C12.9469 19.9885 12.9983 19.9416 13.0466 19.891L20.5593 11.7201C21.1464 11.0823 21.147 10.0476 20.5605 9.40904C20.5601 9.40863 20.5597 9.40817 20.5593 9.40777L13.0466 1.23689C12.459 0.599615 11.5077 0.601044 10.9217 1.24011C10.8756 1.29041 10.8325 1.34393 10.7928 1.40031C10.3716 2.08365 10.4635 2.99751 11.0107 3.56559L15.1577 8.09225C15.3781 8.33227 15.6316 8.53353 15.909 8.68873L16.3597 8.90934L1.6048 8.90934C0.837233 8.87834 0.163813 9.46149 0.0196152 10.282C-0.113218 11.1729 0.443098 12.0122 1.26222 12.1568Z" fill="#DC7000"/>
</svg>
