<svg width="14" height="14" viewBox="0 0 14 14" fill="none" xmlns="http://www.w3.org/2000/svg">
<g clip-path="url(#clip0_1_308)">
<path d="M10.3192 0.211182H4.4012C2.47513 0.211182 0.908203 1.77996 0.908203 3.7083V9.63339C0.908203 11.5616 2.47513 13.1304 4.4012 13.1304H10.3193C12.2453 13.1304 13.8122 11.5616 13.8122 9.63339V3.7083C13.8122 1.77996 12.2453 0.211182 10.3192 0.211182V0.211182ZM13.0557 9.63339C13.0557 11.144 11.8281 12.373 10.3192 12.373H4.4012C2.89226 12.373 1.66469 11.144 1.66469 9.63339V3.7083C1.66469 2.19758 2.89226 0.968562 4.4012 0.968562H10.3193C11.8281 0.968562 13.0557 2.19758 13.0557 3.7083V9.63339Z" fill="black"/>
<path d="M7.36012 3.13818C5.41456 3.13818 3.83179 4.72283 3.83179 6.67069C3.83179 8.61855 5.41456 10.2032 7.36012 10.2032C9.30568 10.2032 10.8885 8.61855 10.8885 6.67069C10.8885 4.72283 9.30568 3.13818 7.36012 3.13818V3.13818ZM7.36012 9.44581C5.83179 9.44581 4.58827 8.20092 4.58827 6.67069C4.58827 5.14055 5.83179 3.89556 7.36012 3.89556C8.88855 3.89556 10.132 5.14055 10.132 6.67069C10.132 8.20092 8.88855 9.44581 7.36012 9.44581V9.44581Z" fill="black"/>
<path d="M10.973 1.88379C10.3981 1.88379 9.93042 2.35208 9.93042 2.9276C9.93042 3.50323 10.3981 3.97151 10.973 3.97151C11.5479 3.97151 12.0157 3.50323 12.0157 2.9276C12.0157 2.35198 11.5479 1.88379 10.973 1.88379ZM10.973 3.21403C10.8153 3.21403 10.6869 3.0855 10.6869 2.9276C10.6869 2.7696 10.8153 2.64117 10.973 2.64117C11.1308 2.64117 11.2592 2.7696 11.2592 2.9276C11.2592 3.0855 11.1308 3.21403 10.973 3.21403Z" fill="black"/>
</g>
<defs>
<clipPath id="clip0_1_308">
<rect width="12.904" height="12.9193" fill="white" transform="translate(0.908203 0.211182)"/>
</clipPath>
</defs>
</svg>
