<svg width="12" height="12" viewBox="0 0 12 12" fill="none" xmlns="http://www.w3.org/2000/svg">
<g clip-path="url(#clip0_1_322)">
<path d="M11.086 11.1369V11.1364H11.0887V7.1272C11.0887 5.16588 10.667 3.65503 8.37675 3.65503C7.27577 3.65503 6.53693 4.25992 6.2353 4.83337H6.20346V3.83813H4.03198V11.1364H6.29308V7.52257C6.29308 6.57106 6.47324 5.65097 7.65019 5.65097C8.80986 5.65097 8.82715 6.73685 8.82715 7.5836V11.1369H11.086Z" fill="white"/>
<path d="M0.350098 3.83838H2.61392V11.1366H0.350098V3.83838Z" fill="white"/>
<path d="M1.48109 0.205078C0.757261 0.205078 0.169922 0.793111 0.169922 1.51779C0.169922 2.24247 0.757261 2.8428 1.48109 2.8428C2.20491 2.8428 2.79225 2.24247 2.79225 1.51779C2.79179 0.793111 2.20445 0.205078 1.48109 0.205078V0.205078Z" fill="white"/>
</g>
<defs>
<clipPath id="clip0_1_322">
<rect width="10.9188" height="10.9317" fill="white" transform="translate(0.169922 0.205078)"/>
</clipPath>
</defs>
</svg>
