<svg width="34" height="37" viewBox="0 0 34 37" fill="none" xmlns="http://www.w3.org/2000/svg">
<g clip-path="url(#clip0_1_222)">
<path d="M29.7203 2.17569H4.38132C2.25276 2.17833 0.527819 4.05439 0.525391 6.36944V30.3337C0.527819 32.6488 2.25276 34.5248 4.38132 34.5275H29.7203C31.8489 34.5248 33.5738 32.6488 33.5762 30.3337V6.36944C33.5738 4.05439 31.8489 2.17833 29.7203 2.17569ZM32.4745 30.3337C32.4727 31.9873 31.2407 33.3273 29.7203 33.3292H4.38132C2.86095 33.3273 1.62891 31.9873 1.62709 30.3337V6.36944C1.62891 4.71587 2.86095 3.37588 4.38132 3.3739H29.7203C31.2407 3.37588 32.4727 4.71587 32.4745 6.36944V30.3337Z" fill="#DC7000"/>
<path d="M29.7203 6.96854H4.3813C3.46863 6.96854 2.72876 7.77322 2.72876 8.76586V30.3337C2.72876 31.3263 3.46863 32.131 4.3813 32.131H29.7203C30.633 32.131 31.3728 31.3263 31.3728 30.3337V8.76586C31.3728 7.77322 30.633 6.96854 29.7203 6.96854ZM17.0508 18.8692L11.0515 15.356L17.0508 11.8429L23.0501 15.356L17.0508 18.8692ZM23.661 16.3589V23.3841L17.6016 26.9344V19.9092L23.661 16.3589ZM16.4999 19.9092V26.9344L10.4406 23.3841V16.3589L16.4999 19.9092ZM3.83045 8.76586C3.83045 8.43498 4.07708 8.16675 4.3813 8.16675H16.4999V10.8028L9.62867 14.8288C9.62151 14.833 9.61325 14.8348 9.60609 14.8396C9.43952 14.9484 9.338 15.1447 9.33893 15.356V20.3777L3.83045 23.3733V8.76586ZM30.2711 30.3337C30.2711 30.6646 30.0245 30.9328 29.7203 30.9328H4.3813C4.07708 30.9328 3.83045 30.6646 3.83045 30.3337V24.7129L9.33893 21.7173V23.7435C9.33904 23.9638 9.45031 24.1663 9.62867 24.2707L16.7897 28.4645C16.9527 28.5599 17.1489 28.5599 17.3119 28.4645L24.4729 24.2707C24.6513 24.1663 24.7626 23.9638 24.7627 23.7435V21.7173L30.2711 24.7129V30.3337ZM30.2711 23.3733L24.7627 20.3777V15.356C24.7626 15.1453 24.6607 14.9501 24.4944 14.842C24.4872 14.8372 24.479 14.8354 24.4718 14.8312L17.6016 10.8028V8.16675H29.7203C30.0245 8.16675 30.2711 8.43498 30.2711 8.76586V23.3733Z" fill="#DC7000"/>
<path d="M3.83039 5.77036C4.13461 5.77036 4.38124 5.50213 4.38124 5.17125C4.38124 4.84037 4.13461 4.57214 3.83039 4.57214C3.52616 4.57214 3.27954 4.84037 3.27954 5.17125C3.27954 5.50213 3.52616 5.77036 3.83039 5.77036Z" fill="#DC7000"/>
<path d="M6.03376 5.77036C6.33798 5.77036 6.58461 5.50213 6.58461 5.17125C6.58461 4.84037 6.33798 4.57214 6.03376 4.57214C5.72953 4.57214 5.48291 4.84037 5.48291 5.17125C5.48291 5.50213 5.72953 5.77036 6.03376 5.77036Z" fill="#DC7000"/>
<path d="M8.23713 5.77036C8.54135 5.77036 8.78797 5.50213 8.78797 5.17125C8.78797 4.84037 8.54135 4.57214 8.23713 4.57214C7.9329 4.57214 7.68628 4.84037 7.68628 5.17125C7.68628 5.50213 7.9329 5.77036 8.23713 5.77036Z" fill="#DC7000"/>
<path d="M22.0084 5.77036H29.7202C30.0245 5.77036 30.2711 5.50213 30.2711 5.17125C30.2711 4.84037 30.0245 4.57214 29.7202 4.57214H22.0084C21.7041 4.57214 21.4575 4.84037 21.4575 5.17125C21.4575 5.50213 21.7041 5.77036 22.0084 5.77036Z" fill="#DC7000"/>
</g>
<defs>
<clipPath id="clip0_1_222">
<rect width="33.0508" height="35.9464" fill="white" transform="translate(0.525391 0.378418)"/>
</clipPath>
</defs>
</svg>
