<svg width="48" height="44" viewBox="0 0 48 44" fill="none" xmlns="http://www.w3.org/2000/svg">
<g clip-path="url(#clip0_1_189)" filter="url(#filter0_d_1_189)">
<path d="M12.4057 15.7076H4.22046V18.2351H12.4057C13.0464 18.2351 13.5677 18.802 13.5677 19.4989C13.5677 20.1957 13.0464 20.7626 12.4057 20.7626H7.70629C5.7842 20.7626 4.22046 22.4633 4.22046 24.5538V28.345H6.54435V24.5538C6.54435 23.857 7.06559 23.2901 7.70629 23.2901H12.4057C14.3278 23.2901 15.8916 21.5893 15.8916 19.4989C15.8916 17.4084 14.3278 15.7076 12.4057 15.7076Z" fill="#DC7000"/>
<path d="M24.6318 15.7076C22.7097 15.7076 21.146 17.4084 21.146 19.4989V24.5538C21.146 25.2507 20.6247 25.8176 19.984 25.8176H14.7295V28.345H19.984C21.9061 28.345 23.4699 26.6443 23.4699 24.5538V19.4989C23.4699 18.802 23.9911 18.2351 24.6318 18.2351H29.8864V15.7076H24.6318Z" fill="#DC7000"/>
<path d="M41.5575 23.2899V18.2351C41.5575 16.8415 40.515 15.7076 39.2336 15.7076C38.7935 15.7076 38.3647 15.8424 37.9935 16.0974L30.6346 21.1523C29.9559 21.6185 29.5508 22.4176 29.5508 23.2901C29.5508 24.6837 30.5933 25.8176 31.8747 25.8176H39.2336V28.345H41.5575V25.8176H43.8814V23.2901L41.5575 23.2899ZM39.2336 23.2898L31.8755 23.2893L39.2336 18.2351V23.2898Z" fill="#DC7000"/>
</g>
<defs>
<filter id="filter0_d_1_189" x="0.220459" y="0.458496" width="47.6611" height="51.1357" filterUnits="userSpaceOnUse" color-interpolation-filters="sRGB">
<feFlood flood-opacity="0" result="BackgroundImageFix"/>
<feColorMatrix in="SourceAlpha" type="matrix" values="0 0 0 0 0 0 0 0 0 0 0 0 0 0 0 0 0 0 127 0" result="hardAlpha"/>
<feOffset dy="4"/>
<feGaussianBlur stdDeviation="2"/>
<feComposite in2="hardAlpha" operator="out"/>
<feColorMatrix type="matrix" values="0 0 0 0 0 0 0 0 0 0 0 0 0 0 0 0 0 0 0.25 0"/>
<feBlend mode="normal" in2="BackgroundImageFix" result="effect1_dropShadow_1_189"/>
<feBlend mode="normal" in="SourceGraphic" in2="effect1_dropShadow_1_189" result="shape"/>
</filter>
<clipPath id="clip0_1_189">
<rect width="39.661" height="43.1357" fill="white" transform="translate(4.22046 0.458496)"/>
</clipPath>
</defs>
</svg>
