<svg width="33" height="35" viewBox="0 0 33 35" fill="none" xmlns="http://www.w3.org/2000/svg">
<g clip-path="url(#clip0_1_166)">
<path d="M3.18792 13.9524C3.32945 13.9533 3.46549 13.8929 3.56598 13.7845L5.69593 11.4679C5.90473 11.2408 5.90473 10.8726 5.69593 10.6455C5.48713 10.4184 5.1486 10.4184 4.9398 10.6455L2.80985 12.9621C2.70905 13.0708 2.65234 13.2189 2.65234 13.3733C2.65234 13.5277 2.70905 13.6757 2.80985 13.7845C2.91034 13.8929 3.04638 13.9533 3.18792 13.9524Z" fill="#DC7000"/>
<path d="M3.18792 17.4272C3.32945 17.4281 3.46549 17.3677 3.56598 17.2593L8.89084 11.4679C9.09964 11.2408 9.09964 10.8726 8.89084 10.6455C8.68204 10.4184 8.34351 10.4184 8.13471 10.6455L2.80985 16.4369C2.70905 16.5456 2.65234 16.6937 2.65234 16.8481C2.65234 17.0025 2.70905 17.1505 2.80985 17.2593C2.91034 17.3677 3.04638 17.4281 3.18792 17.4272Z" fill="#DC7000"/>
<path d="M30.8771 0.0531311H17.0325C16.1502 0.0531311 15.435 0.830996 15.435 1.79054V8.16104H3.18782C1.7174 8.16104 0.525391 9.45748 0.525391 11.0567V26.1143C0.525391 27.7135 1.7174 29.01 3.18782 29.01H9.04516V31.3265H7.44771C6.56546 31.3265 5.85025 32.1044 5.85025 33.0639C5.85025 34.0235 6.56546 34.8013 7.44771 34.8013H30.8771C31.7593 34.8013 32.4745 34.0235 32.4745 33.0639V1.79054C32.4745 0.830996 31.7593 0.0531311 30.8771 0.0531311ZM3.18782 9.31931H22.3573C23.2396 9.31931 23.9548 10.0972 23.9548 11.0567V24.956H1.59036V11.0567C1.59036 10.0972 2.30557 9.31931 3.18782 9.31931ZM1.59036 26.1143H23.9548C23.9548 27.0738 23.2396 27.8517 22.3573 27.8517H3.18782C2.30557 27.8517 1.59036 27.0738 1.59036 26.1143ZM10.1101 29.01H15.435V31.3265H10.1101V29.01ZM17.0325 33.643H7.44771C7.15362 33.643 6.91522 33.3838 6.91522 33.0639C6.91522 32.7441 7.15362 32.4848 7.44771 32.4848H18.0974C18.3915 32.4848 18.6299 32.7441 18.6299 33.0639C18.6299 33.3838 18.3915 33.643 18.0974 33.643H17.0325ZM31.4096 33.0639C31.4096 33.3838 31.1712 33.643 30.8771 33.643H19.599C19.7716 33.1121 19.6969 32.5231 19.3986 32.0628C19.1002 31.6025 18.6152 31.3281 18.0974 31.3265H16.5V29.01H22.3573C23.8277 29.01 25.0197 27.7135 25.0197 26.1143V11.0567C25.0197 9.45748 23.8277 8.16104 22.3573 8.16104H16.5V1.79054C16.5 1.47069 16.7384 1.2114 17.0325 1.2114H30.8771C31.1712 1.2114 31.4096 1.47069 31.4096 1.79054V33.0639Z" fill="#DC7000"/>
<path d="M29.2796 2.94885H18.6299C18.0417 2.94885 17.5649 3.46743 17.5649 4.10713V5.2654C17.5649 5.9051 18.0417 6.42367 18.6299 6.42367H29.2796C29.8678 6.42367 30.3446 5.9051 30.3446 5.2654V4.10713C30.3446 3.46743 29.8678 2.94885 29.2796 2.94885ZM18.6299 5.2654V4.10713H29.2796V5.2654H18.6299Z" fill="#DC7000"/>
<path d="M28.2146 11.6358C29.0969 11.6358 29.8121 10.858 29.8121 9.89843C29.8121 8.93889 29.0969 8.16103 28.2146 8.16103C27.3324 8.16103 26.6172 8.93889 26.6172 9.89843C26.6172 10.858 27.3324 11.6358 28.2146 11.6358ZM28.2146 9.3193C28.5087 9.3193 28.7471 9.57859 28.7471 9.89843C28.7471 10.2183 28.5087 10.4776 28.2146 10.4776C27.9206 10.4776 27.6822 10.2183 27.6822 9.89843C27.6822 9.57859 27.9206 9.3193 28.2146 9.3193Z" fill="#DC7000"/>
<path d="M29.8121 14.5316C29.8121 13.572 29.0969 12.7941 28.2146 12.7941C27.3324 12.7941 26.6172 13.572 26.6172 14.5316C26.6172 15.4911 27.3324 16.269 28.2146 16.269C29.0969 16.269 29.8121 15.4911 29.8121 14.5316ZM28.2146 15.1107C27.9206 15.1107 27.6822 14.8514 27.6822 14.5316C27.6822 14.2117 27.9206 13.9524 28.2146 13.9524C28.5087 13.9524 28.7471 14.2117 28.7471 14.5316C28.7471 14.8514 28.5087 15.1107 28.2146 15.1107Z" fill="#DC7000"/>
<path d="M21.2925 30.1682C20.9984 30.1682 20.76 30.4275 20.76 30.7474V31.9056C20.76 32.2255 20.9984 32.4848 21.2925 32.4848C21.5866 32.4848 21.825 32.2255 21.825 31.9056V30.7474C21.825 30.4275 21.5866 30.1682 21.2925 30.1682Z" fill="#DC7000"/>
<path d="M23.4224 30.1682C23.1283 30.1682 22.8899 30.4275 22.8899 30.7474V31.9056C22.8899 32.2255 23.1283 32.4848 23.4224 32.4848C23.7165 32.4848 23.9549 32.2255 23.9549 31.9056V30.7474C23.9549 30.4275 23.7165 30.1682 23.4224 30.1682Z" fill="#DC7000"/>
<path d="M25.5523 30.1682C25.2582 30.1682 25.0198 30.4275 25.0198 30.7474V31.9056C25.0198 32.2255 25.2582 32.4848 25.5523 32.4848C25.8463 32.4848 26.0847 32.2255 26.0847 31.9056V30.7474C26.0847 30.4275 25.8463 30.1682 25.5523 30.1682Z" fill="#DC7000"/>
<path d="M27.6821 30.1682C27.3881 30.1682 27.1497 30.4275 27.1497 30.7474V31.9056C27.1497 32.2255 27.3881 32.4848 27.6821 32.4848C27.9762 32.4848 28.2146 32.2255 28.2146 31.9056V30.7474C28.2146 30.4275 27.9762 30.1682 27.6821 30.1682Z" fill="#DC7000"/>
<path d="M29.812 30.1682C29.5179 30.1682 29.2795 30.4275 29.2795 30.7474V31.9056C29.2795 32.2255 29.5179 32.4848 29.812 32.4848C30.1061 32.4848 30.3445 32.2255 30.3445 31.9056V30.7474C30.3445 30.4275 30.1061 30.1682 29.812 30.1682Z" fill="#DC7000"/>
</g>
<defs>
<clipPath id="clip0_1_166">
<rect width="31.9492" height="34.7482" fill="white" transform="translate(0.525391 0.0531311)"/>
</clipPath>
</defs>
</svg>
