<svg width="31" height="33" viewBox="0 0 31 33" fill="none" xmlns="http://www.w3.org/2000/svg">
<g clip-path="url(#clip0_1_147)">
<path d="M21.7441 0.251343H9.25586C8.05214 0.251343 7.07202 1.31733 7.07202 2.6265V30.2274C7.07202 31.5371 8.05214 32.6031 9.25586 32.6031H21.7436C22.9478 32.6031 23.928 31.5371 23.928 30.2279V2.6265C23.928 1.31733 22.9478 0.251343 21.7441 0.251343ZM8.06355 4.56491H22.9364V25.0544H8.06355V4.56491ZM9.25586 1.32973H21.7436C22.4015 1.32973 22.9364 1.91153 22.9364 2.6265V3.48652H8.06355V2.6265C8.06355 1.91153 8.59848 1.32973 9.25586 1.32973ZM21.7441 31.5247H9.25586C8.59848 31.5247 8.06355 30.9429 8.06355 30.2279V26.1328H22.9364V30.2279C22.9364 30.9429 22.4015 31.5247 21.7441 31.5247Z" fill="#DC7000"/>
<path d="M15.5001 26.672C14.4065 26.672 13.5171 27.6393 13.5171 28.8287C13.5171 30.0182 14.4065 30.9855 15.5001 30.9855C16.5938 30.9855 17.4832 30.0182 17.4832 28.8287C17.4832 27.6393 16.5938 26.672 15.5001 26.672ZM15.5001 29.9071C14.9533 29.9071 14.5086 29.4235 14.5086 28.8287C14.5086 28.234 14.9533 27.7503 15.5001 27.7503C16.047 27.7503 16.4917 28.234 16.4917 28.8287C16.4917 29.4235 16.047 29.9071 15.5001 29.9071Z" fill="#DC7000"/>
<path d="M13.517 2.94732H15.5001C15.7742 2.94732 15.9958 2.7063 15.9958 2.40812C15.9958 2.10995 15.7742 1.86893 15.5001 1.86893H13.517C13.2428 1.86893 13.0212 2.10995 13.0212 2.40812C13.0212 2.7063 13.2428 2.94732 13.517 2.94732Z" fill="#DC7000"/>
<path d="M16.9875 2.94732H17.4832C17.7574 2.94732 17.979 2.7063 17.979 2.40812C17.979 2.10995 17.7574 1.86893 17.4832 1.86893H16.9875C16.7133 1.86893 16.4917 2.10995 16.4917 2.40812C16.4917 2.7063 16.7133 2.94732 16.9875 2.94732Z" fill="#DC7000"/>
<path d="M28.6933 2.71493C28.4995 2.5041 28.1861 2.5041 27.9923 2.71493C27.7985 2.92575 27.7985 3.26653 27.9923 3.47735C29.8445 5.49179 29.8445 8.76956 27.9923 10.7845C27.7985 10.9954 27.7985 11.3361 27.9923 11.547C28.089 11.6521 28.2159 11.7049 28.3428 11.7049C28.4697 11.7049 28.5966 11.6521 28.6933 11.547C30.9322 9.11249 30.9322 5.14994 28.6933 2.71493Z" fill="#DC7000"/>
<path d="M26.6057 3.94213C26.4118 3.73131 26.0985 3.73131 25.9047 3.94213C25.7108 4.15296 25.7108 4.49373 25.9047 4.70455C26.5179 5.37154 26.8555 6.26013 26.8555 7.20588C26.8555 8.15163 26.5179 9.03969 25.9047 9.70668C25.7108 9.9175 25.7108 10.2583 25.9047 10.4691C26.0013 10.5742 26.1282 10.6271 26.2552 10.6271C26.3821 10.6271 26.509 10.5742 26.6057 10.4691C27.4063 9.59884 27.8471 8.43957 27.8471 7.20588C27.8471 5.9722 27.4068 4.81239 26.6057 3.94213Z" fill="#DC7000"/>
<path d="M3.00784 3.47735C3.20169 3.26653 3.20169 2.92575 3.00784 2.71493C2.814 2.5041 2.50068 2.5041 2.30683 2.71493C0.0679694 5.14994 0.0679694 9.11195 2.30683 11.547C2.40351 11.6521 2.53042 11.7049 2.65734 11.7049C2.78425 11.7049 2.91117 11.6521 3.00784 11.547C3.20169 11.3361 3.20169 10.9954 3.00784 10.7845C1.15518 8.7701 1.15518 5.49233 3.00784 3.47735Z" fill="#DC7000"/>
<path d="M5.09547 3.79331C4.90163 3.58249 4.58831 3.58249 4.39447 3.79331C3.59381 4.66357 3.15308 5.82285 3.15308 7.05653C3.15308 8.29021 3.59381 9.44948 4.39447 10.3203C4.49114 10.4254 4.61806 10.4783 4.74497 10.4783C4.87189 10.4783 4.9988 10.4254 5.09547 10.3203C5.28932 10.1095 5.28932 9.76868 5.09547 9.55786C4.48222 8.89087 4.1446 8.00228 4.1446 7.05653C4.1446 6.11078 4.48172 5.22272 5.09547 4.55574C5.28882 4.34545 5.28882 4.00414 5.09547 3.79331Z" fill="#DC7000"/>
</g>
<defs>
<clipPath id="clip0_1_147">
<rect width="29.7458" height="32.3518" fill="white" transform="translate(0.627197 0.251343)"/>
</clipPath>
</defs>
</svg>
