<svg width="32" height="34" viewBox="0 0 32 34" fill="none" xmlns="http://www.w3.org/2000/svg">
<g clip-path="url(#clip0_1_208)">
<path d="M18.5671 25.5691C16.8811 26.181 15.0213 26.1809 13.3305 25.5689C12.8567 25.3973 12.3452 25.676 12.1876 26.191C12.03 26.7061 12.2861 27.2627 12.7597 27.4341C13.7894 27.8068 14.8703 27.9931 15.9509 27.9931C17.0316 27.9931 18.1119 27.8066 19.1392 27.4338C19.6126 27.262 19.8684 26.7053 19.7103 26.1903C19.5524 25.6755 19.0406 25.3974 18.5671 25.5691Z" fill="#DC7000"/>
<path d="M26.4768 6.67295C26.0921 3.67246 23.7232 1.30417 20.7892 1.30417H19.7568V1.23425C19.7568 0.691424 19.3522 0.251343 18.8531 0.251343H13.0451C12.546 0.251343 12.1414 0.691424 12.1414 1.23425V1.3041H11.1091C8.19966 1.3041 5.82747 3.63937 5.42405 6.67223C3.72997 7.09154 2.46143 8.74185 2.46143 10.7094V19.1319C2.46143 21.8255 4.47874 22.9233 5.39507 23.1601C5.80886 29.224 10.4904 33.8013 15.9491 33.8013C21.5159 33.8013 26.0925 29.1027 26.5027 23.1604C28.878 22.5471 29.4368 20.2033 29.4368 19.132V10.7095C29.4369 8.7429 28.1695 7.09324 26.4768 6.67295ZM19.7568 3.26992H20.7891C23.3462 3.26992 24.4025 5.54379 24.6221 6.56817H19.7568V3.26992ZM13.9489 2.21716H17.9494V6.56817H13.9489V2.21716ZM11.1091 3.26992H12.1414V6.56817H7.27984C7.866 3.89754 10.0905 3.26992 11.1091 3.26992ZM15.9491 31.8355C11.4886 31.8355 7.67573 28.1603 7.2188 23.2732H11.6754C12.7844 23.2732 13.8695 22.7845 14.6524 21.9323C14.6571 21.9272 14.6617 21.9221 14.6662 21.917C15.0062 21.5553 15.4727 21.3482 15.9491 21.3482C16.4257 21.3482 16.8921 21.5553 17.2321 21.917C17.2366 21.9221 17.2412 21.9272 17.2459 21.9323C18.0288 22.7845 19.1139 23.2732 20.2229 23.2732H24.6791C24.2253 28.0765 20.4833 31.8355 15.9491 31.8355ZM27.6294 19.132C27.6294 20.3484 26.7178 21.3074 25.6291 21.3074H20.2229C19.5968 21.3074 18.9843 21.0348 18.5391 20.5586C18.5342 20.553 18.5293 20.5475 18.5243 20.542C17.8467 19.8051 16.9082 19.3824 15.9492 19.3824C14.9903 19.3824 14.0517 19.8051 13.3741 20.542C13.3691 20.5474 13.3641 20.5529 13.3593 20.5585C12.914 21.0348 12.3015 21.3074 11.6754 21.3074H6.2691C5.18389 21.3074 4.26883 20.3526 4.26883 19.132V10.7095C4.26883 9.50996 5.16618 8.53406 6.2691 8.53406H25.6291C26.732 8.53406 27.6293 9.51002 27.6293 10.7095V19.132H27.6294Z" fill="#DC7000"/>
</g>
<defs>
<clipPath id="clip0_1_208">
<rect width="30.8475" height="33.55" fill="white" transform="translate(0.525391 0.251343)"/>
</clipPath>
</defs>
</svg>
