<svg width="40" height="41" viewBox="0 0 40 41" fill="none" xmlns="http://www.w3.org/2000/svg">
<g clip-path="url(#clip0_1_240)" filter="url(#filter0_d_1_240)">
<path d="M35.3522 29.5738L34.6906 26.8884C34.6045 26.5388 34.274 26.3311 33.9527 26.4251C33.6312 26.5188 33.4405 26.878 33.5266 27.2276L33.8163 28.4033L29.5885 25.7803V14.879C29.5885 14.6445 29.4732 14.4278 29.2863 14.3109L20.5507 8.84852V3.65769L21.3297 4.50493C21.565 4.76083 21.9465 4.76083 22.1818 4.50493C22.4171 4.24904 22.4171 3.83409 22.1818 3.57813L20.3742 1.6122C20.1387 1.355 19.753 1.36017 19.5221 1.6122L17.7145 3.57813C17.4792 3.83403 17.4792 4.24897 17.7145 4.50493C17.9498 4.76077 18.3313 4.76077 18.5667 4.50493L19.3457 3.65769V8.8497L10.6687 14.3118C10.4826 14.429 10.368 14.6452 10.368 14.879V25.6744L6.08073 28.3241L6.37084 27.1463C6.45694 26.7967 6.26618 26.4374 5.94474 26.3438C5.62323 26.2499 5.29293 26.4575 5.20683 26.8071L4.54526 29.4932C4.46151 29.8333 4.64877 30.2118 4.98938 30.301L7.4405 31.0153C7.76454 31.1098 8.09303 30.8987 8.17847 30.552C8.26463 30.2024 8.07387 29.8431 7.75243 29.7494L6.70687 29.4447L10.9619 26.8149L19.6804 32.3986C19.867 32.5181 20.0988 32.5197 20.2871 32.4016L22.4973 31.0158C22.7856 30.8351 22.8845 30.4344 22.7184 30.1209C22.5522 29.8074 22.1837 29.6997 21.8954 29.8805L19.9894 31.0755L12.1706 26.068L19.9102 21.2846L27.799 26.1789L26.5921 26.9357C26.3038 27.1164 26.2049 27.5172 26.371 27.8307C26.5373 28.1443 26.9058 28.2519 27.194 28.0711L29.0118 26.9313L33.1922 29.525L32.1452 29.8301C31.8238 29.9237 31.633 30.283 31.7192 30.6326C31.8049 30.9805 32.1342 31.1902 32.4571 31.096L34.8719 30.3923C35.2167 30.3261 35.4447 29.9492 35.3522 29.5738ZM28.3834 25.0326L20.5506 20.173V10.3603L28.3834 15.2582V25.0326ZM11.573 15.2569L19.3456 10.3641V20.126L11.573 24.9297V15.2569Z" fill="#DC7000"/>
<path d="M24.5273 29.5985C24.8601 29.5985 25.1299 29.3052 25.1299 28.9432C25.1299 28.5813 24.8601 28.2879 24.5273 28.2879C24.1946 28.2879 23.9248 28.5813 23.9248 28.9432C23.9248 29.3052 24.1946 29.5985 24.5273 29.5985Z" fill="#DC7000"/>
</g>
<defs>
<filter id="filter0_d_1_240" x="0.525391" y="0.180237" width="38.8474" height="41.55" filterUnits="userSpaceOnUse" color-interpolation-filters="sRGB">
<feFlood flood-opacity="0" result="BackgroundImageFix"/>
<feColorMatrix in="SourceAlpha" type="matrix" values="0 0 0 0 0 0 0 0 0 0 0 0 0 0 0 0 0 0 127 0" result="hardAlpha"/>
<feOffset dy="4"/>
<feGaussianBlur stdDeviation="2"/>
<feComposite in2="hardAlpha" operator="out"/>
<feColorMatrix type="matrix" values="0 0 0 0 0 0 0 0 0 0 0 0 0 0 0 0 0 0 0.25 0"/>
<feBlend mode="normal" in2="BackgroundImageFix" result="effect1_dropShadow_1_240"/>
<feBlend mode="normal" in="SourceGraphic" in2="effect1_dropShadow_1_240" result="shape"/>
</filter>
<clipPath id="clip0_1_240">
<rect width="30.8475" height="33.55" fill="white" transform="translate(4.52539 0.180237)"/>
</clipPath>
</defs>
</svg>
