<svg width="14" height="14" viewBox="0 0 14 14" fill="none" xmlns="http://www.w3.org/2000/svg">
<g clip-path="url(#clip0_1_315)">
<path d="M13.4504 2.65893C12.9705 2.86968 12.4592 3.00937 11.9261 3.07719C12.4745 2.74937 12.8931 2.23421 13.0899 1.61328C12.5786 1.9185 12.014 2.13409 11.4124 2.2544C10.9269 1.73682 10.2349 1.41626 9.48 1.41626C8.01539 1.41626 6.83629 2.60645 6.83629 4.06551C6.83629 4.27545 6.85403 4.47732 6.89758 4.66949C4.69825 4.5621 2.75217 3.50676 1.44483 1.89912C1.21659 2.29558 1.08271 2.74937 1.08271 3.23787C1.08271 4.15514 1.55451 4.96825 2.25778 5.43899C1.83276 5.43092 1.41579 5.30738 1.06255 5.11278C1.06255 5.12086 1.06255 5.13135 1.06255 5.14185C1.06255 6.42893 1.97954 7.498 3.18203 7.74427C2.9667 7.80322 2.732 7.83148 2.48844 7.83148C2.31908 7.83148 2.1481 7.82179 1.9876 7.78626C2.33037 8.83514 3.30301 9.60626 4.45953 9.63129C3.55947 10.3362 2.41666 10.7609 1.17949 10.7609C0.962541 10.7609 0.754464 10.7512 0.546387 10.7246C1.71823 11.4812 3.10703 11.9132 4.6047 11.9132C9.47274 11.9132 12.1342 7.87589 12.1342 4.37638C12.1342 4.2593 12.1302 4.14626 12.1245 4.03402C12.6495 3.66098 13.0907 3.19508 13.4504 2.65893Z" fill="white"/>
</g>
<defs>
<clipPath id="clip0_1_315">
<rect width="12.904" height="12.9193" fill="white" transform="translate(0.546387 0.205078)"/>
</clipPath>
</defs>
</svg>
